<svg xmlns="http://www.w3.org/2000/svg" viewBox="0 0 720 340" width="720" height="340" font-family="Helvetica, Arial, sans-serif">
<defs><radialGradient id="felt" cx="50%" cy="40%" r="75%"><stop offset="0" stop-color="#2f8f4e"/><stop offset="1" stop-color="#1c5c32"/></radialGradient></defs>
<rect width="720" height="340" rx="18" fill="url(#felt)"/>
<g><rect x="30" y="33" width="52" height="72" rx="6" fill="#000" opacity=".25"/><rect x="28" y="30" width="52" height="72" rx="6" fill="#fffdf4" stroke="#8a7f66" stroke-width="1.2"/><text x="54" y="64" font-size="30" font-weight="700" text-anchor="middle" fill="#c8102e" font-family="Helvetica, Arial, sans-serif">3</text><text x="54" y="92" font-size="26" text-anchor="middle" fill="#c8102e">♥</text></g>
<g><rect x="64" y="33" width="52" height="72" rx="6" fill="#000" opacity=".25"/><rect x="62" y="30" width="52" height="72" rx="6" fill="#fffdf4" stroke="#8a7f66" stroke-width="1.2"/><text x="88" y="64" font-size="30" font-weight="700" text-anchor="middle" fill="#c8102e" font-family="Helvetica, Arial, sans-serif">4</text><text x="88" y="92" font-size="26" text-anchor="middle" fill="#c8102e">♥</text></g>
<g><rect x="98" y="33" width="52" height="72" rx="6" fill="#000" opacity=".25"/><rect x="96" y="30" width="52" height="72" rx="6" fill="#fffdf4" stroke="#8a7f66" stroke-width="1.2"/><text x="122" y="64" font-size="30" font-weight="700" text-anchor="middle" fill="#c8102e" font-family="Helvetica, Arial, sans-serif">5</text><text x="122" y="92" font-size="26" text-anchor="middle" fill="#c8102e">♥</text></g>
<g><rect x="132" y="33" width="52" height="72" rx="6" fill="#000" opacity=".25"/><rect x="130" y="30" width="52" height="72" rx="6" fill="#fffdf4" stroke="#8a7f66" stroke-width="1.2"/><text x="156" y="64" font-size="30" font-weight="700" text-anchor="middle" fill="#c8102e" font-family="Helvetica, Arial, sans-serif">6</text><text x="156" y="92" font-size="26" text-anchor="middle" fill="#c8102e">♥</text></g>
<g><rect x="166" y="33" width="52" height="72" rx="6" fill="#000" opacity=".25"/><rect x="164" y="30" width="52" height="72" rx="6" fill="#fffdf4" stroke="#8a7f66" stroke-width="1.2"/><text x="190" y="64" font-size="30" font-weight="700" text-anchor="middle" fill="#c8102e" font-family="Helvetica, Arial, sans-serif">7</text><text x="190" y="92" font-size="26" text-anchor="middle" fill="#c8102e">♥</text></g>
<g><rect x="200" y="33" width="52" height="72" rx="6" fill="#000" opacity=".25"/><rect x="198" y="30" width="52" height="72" rx="6" fill="#fffdf4" stroke="#8a7f66" stroke-width="1.2"/><text x="224" y="64" font-size="30" font-weight="700" text-anchor="middle" fill="#c8102e" font-family="Helvetica, Arial, sans-serif">8</text><text x="224" y="92" font-size="26" text-anchor="middle" fill="#c8102e">♥</text></g>
<g><rect x="234" y="33" width="52" height="72" rx="6" fill="#000" opacity=".25"/><rect x="232" y="30" width="52" height="72" rx="6" fill="#fffdf4" stroke="#8a7f66" stroke-width="1.2"/><text x="258" y="64" font-size="30" font-weight="700" text-anchor="middle" fill="#c8102e" font-family="Helvetica, Arial, sans-serif">9</text><text x="258" y="92" font-size="26" text-anchor="middle" fill="#c8102e">♥</text></g>
<g><rect x="342" y="33" width="52" height="72" rx="6" fill="#000" opacity=".25"/><rect x="340" y="30" width="52" height="72" rx="6" fill="#fffdf4" stroke="#8a7f66" stroke-width="1.2"/><text x="366" y="64" font-size="30" font-weight="700" text-anchor="middle" fill="#1b1b1b" font-family="Helvetica, Arial, sans-serif">K</text><text x="366" y="92" font-size="26" text-anchor="middle" fill="#1b1b1b">♠</text></g>
<g><rect x="376" y="33" width="52" height="72" rx="6" fill="#000" opacity=".25"/><rect x="374" y="30" width="52" height="72" rx="6" fill="#fffdf4" stroke="#8a7f66" stroke-width="1.2"/><text x="400" y="64" font-size="30" font-weight="700" text-anchor="middle" fill="#c8102e" font-family="Helvetica, Arial, sans-serif">K</text><text x="400" y="92" font-size="26" text-anchor="middle" fill="#c8102e">♦</text></g>
<g><rect x="410" y="33" width="52" height="72" rx="6" fill="#000" opacity=".25"/><rect x="408" y="30" width="52" height="72" rx="6" fill="#fffdf4" stroke="#8a7f66" stroke-width="1.2"/><text x="434" y="64" font-size="30" font-weight="700" text-anchor="middle" fill="#1b1b1b" font-family="Helvetica, Arial, sans-serif">K</text><text x="434" y="92" font-size="26" text-anchor="middle" fill="#1b1b1b">♣</text></g>
<g><rect x="444" y="33" width="52" height="72" rx="6" fill="#000" opacity=".25"/><rect x="442" y="30" width="52" height="72" rx="6" fill="#fffdf4" stroke="#8a7f66" stroke-width="1.2"/><text x="468" y="60" font-size="12" font-weight="700" text-anchor="middle" fill="#1d4f8a" transform="rotate(-90 468 66)">JOKER</text><text x="468" y="92" font-size="14" text-anchor="middle" fill="#c8102e">★</text></g>
<text x="28" y="130" font-size="13" fill="#e8f5e9" opacity=".9">clean buraco</text>
<text x="340" y="130" font-size="13" fill="#e8f5e9" opacity=".9">set</text>
<g><rect x="302" y="193" width="52" height="72" rx="6" fill="#000" opacity=".25"/><rect x="300" y="190" width="52" height="72" rx="6" fill="#fffdf4" stroke="#8a7f66" stroke-width="1.2"/><rect x="305" y="195" width="42" height="62" rx="4" fill="#1d4f8a"/><rect x="309" y="199" width="34" height="54" rx="3" fill="none" stroke="#fffdf4" stroke-width="1.5" stroke-dasharray="3 2"/></g>
<g><rect x="298" y="189" width="52" height="72" rx="6" fill="#000" opacity=".25"/><rect x="296" y="186" width="52" height="72" rx="6" fill="#fffdf4" stroke="#8a7f66" stroke-width="1.2"/><rect x="301" y="191" width="42" height="62" rx="4" fill="#1d4f8a"/><rect x="305" y="195" width="34" height="54" rx="3" fill="none" stroke="#fffdf4" stroke-width="1.5" stroke-dasharray="3 2"/></g>
<g><rect x="372" y="189" width="52" height="72" rx="6" fill="#000" opacity=".25"/><rect x="370" y="186" width="52" height="72" rx="6" fill="#fffdf4" stroke="#8a7f66" stroke-width="1.2"/><text x="396" y="220" font-size="30" font-weight="700" text-anchor="middle" fill="#c8102e" font-family="Helvetica, Arial, sans-serif">J</text><text x="396" y="248" font-size="26" text-anchor="middle" fill="#c8102e">♦</text></g>
<text x="296" y="285" font-size="13" fill="#e8f5e9" opacity=".9">stock</text>
<text x="370" y="285" font-size="13" fill="#e8f5e9" opacity=".9">discard pile</text>
<g><rect x="602" y="203" width="52" height="72" rx="6" fill="#000" opacity=".25"/><rect x="600" y="200" width="52" height="72" rx="6" fill="#fffdf4" stroke="#8a7f66" stroke-width="1.2"/><rect x="605" y="205" width="42" height="62" rx="4" fill="#1d4f8a"/><rect x="609" y="209" width="34" height="54" rx="3" fill="none" stroke="#fffdf4" stroke-width="1.5" stroke-dasharray="3 2"/></g>
<g><rect x="598" y="199" width="52" height="72" rx="6" fill="#000" opacity=".25"/><rect x="596" y="196" width="52" height="72" rx="6" fill="#fffdf4" stroke="#8a7f66" stroke-width="1.2"/><rect x="601" y="201" width="42" height="62" rx="4" fill="#1d4f8a"/><rect x="605" y="205" width="34" height="54" rx="3" fill="none" stroke="#fffdf4" stroke-width="1.5" stroke-dasharray="3 2"/></g>
<g><rect x="562" y="253" width="52" height="72" rx="6" fill="#000" opacity=".25"/><rect x="560" y="250" width="52" height="72" rx="6" fill="#fffdf4" stroke="#8a7f66" stroke-width="1.2"/><rect x="565" y="255" width="42" height="62" rx="4" fill="#1d4f8a"/><rect x="569" y="259" width="34" height="54" rx="3" fill="none" stroke="#fffdf4" stroke-width="1.5" stroke-dasharray="3 2"/></g>
<g><rect x="558" y="249" width="52" height="72" rx="6" fill="#000" opacity=".25"/><rect x="556" y="246" width="52" height="72" rx="6" fill="#fffdf4" stroke="#8a7f66" stroke-width="1.2"/><rect x="561" y="251" width="42" height="62" rx="4" fill="#1d4f8a"/><rect x="565" y="255" width="34" height="54" rx="3" fill="none" stroke="#fffdf4" stroke-width="1.5" stroke-dasharray="3 2"/></g>
<text x="556" y="188" font-size="13" fill="#e8f5e9" opacity=".9">pozzetti (pots)</text>
<g transform="translate(50 262) rotate(-12)"><g><rect x="2" y="3" width="52" height="72" rx="6" fill="#000" opacity=".25"/><rect x="0" y="0" width="52" height="72" rx="6" fill="#fffdf4" stroke="#8a7f66" stroke-width="1.2"/><text x="26" y="34" font-size="30" font-weight="700" text-anchor="middle" fill="#1b1b1b" font-family="Helvetica, Arial, sans-serif">A</text><text x="26" y="62" font-size="26" text-anchor="middle" fill="#1b1b1b">♠</text></g></g>
<g transform="translate(94 262) rotate(-6)"><g><rect x="2" y="3" width="52" height="72" rx="6" fill="#000" opacity=".25"/><rect x="0" y="0" width="52" height="72" rx="6" fill="#fffdf4" stroke="#8a7f66" stroke-width="1.2"/><text x="26" y="34" font-size="30" font-weight="700" text-anchor="middle" fill="#c8102e" font-family="Helvetica, Arial, sans-serif">2</text><text x="26" y="62" font-size="26" text-anchor="middle" fill="#c8102e">♥</text></g></g>
<g transform="translate(138 262) rotate(0)"><g><rect x="2" y="3" width="52" height="72" rx="6" fill="#000" opacity=".25"/><rect x="0" y="0" width="52" height="72" rx="6" fill="#fffdf4" stroke="#8a7f66" stroke-width="1.2"/><text x="26" y="34" font-size="30" font-weight="700" text-anchor="middle" fill="#1b1b1b" font-family="Helvetica, Arial, sans-serif">5</text><text x="26" y="62" font-size="26" text-anchor="middle" fill="#1b1b1b">♣</text></g></g>
<g transform="translate(182 262) rotate(6)"><g><rect x="2" y="3" width="52" height="72" rx="6" fill="#000" opacity=".25"/><rect x="0" y="0" width="52" height="72" rx="6" fill="#fffdf4" stroke="#8a7f66" stroke-width="1.2"/><text x="26" y="34" font-size="30" font-weight="700" text-anchor="middle" fill="#c8102e" font-family="Helvetica, Arial, sans-serif">9</text><text x="26" y="62" font-size="26" text-anchor="middle" fill="#c8102e">♦</text></g></g>
<g transform="translate(226 262) rotate(12)"><g><rect x="2" y="3" width="52" height="72" rx="6" fill="#000" opacity=".25"/><rect x="0" y="0" width="52" height="72" rx="6" fill="#fffdf4" stroke="#8a7f66" stroke-width="1.2"/><text x="26" y="34" font-size="30" font-weight="700" text-anchor="middle" fill="#1b1b1b" font-family="Helvetica, Arial, sans-serif">Q</text><text x="26" y="62" font-size="26" text-anchor="middle" fill="#1b1b1b">♠</text></g></g>
</svg>